<mxfile host="65bd71144e">
    <diagram id="SkXLRjJEZ1orAlAKZ_--" name="Page-1">
        <mxGraphModel dx="662" dy="376" grid="1" gridSize="10" guides="1" tooltips="1" connect="1" arrows="1" fold="1" page="1" pageScale="1" pageWidth="850" pageHeight="1100" math="0" shadow="0">
            <root>
                <mxCell id="0"/>
                <mxCell id="1" parent="0"/>
                <mxCell id="7" value="" style="shape=flexArrow;endArrow=classic;html=1;" parent="1" edge="1">
                    <mxGeometry width="50" height="50" relative="1" as="geometry">
                        <mxPoint x="30" y="110" as="sourcePoint"/>
                        <mxPoint x="140" y="230" as="targetPoint"/>
                    </mxGeometry>
                </mxCell>
                <mxCell id="10" value="log&lt;br&gt;log&lt;br&gt;" style="whiteSpace=wrap;html=1;" vertex="1" parent="1">
                    <mxGeometry x="280" y="80" width="120" height="160" as="geometry"/>
                </mxCell>
                <mxCell id="11" value="asyc" style="whiteSpace=wrap;html=1;" vertex="1" parent="1">
                    <mxGeometry x="280" y="300" width="120" height="60" as="geometry"/>
                </mxCell>
                <mxCell id="12" value="main loop" style="text;html=1;align=center;verticalAlign=middle;resizable=0;points=[];autosize=1;strokeColor=none;fillColor=none;" vertex="1" parent="1">
                    <mxGeometry x="290" y="25" width="80" height="30" as="geometry"/>
                </mxCell>
                <mxCell id="13" value="Text" style="text;html=1;align=center;verticalAlign=middle;resizable=0;points=[];autosize=1;strokeColor=none;fillColor=none;" vertex="1" parent="1">
                    <mxGeometry x="305" y="265" width="50" height="30" as="geometry"/>
                </mxCell>
            </root>
        </mxGraphModel>
    </diagram>
</mxfile>